<svg width="28" height="28" viewBox="0 0 28 28" fill="none" xmlns="http://www.w3.org/2000/svg">
<g clip-path="url(#clip0)">
<path d="M1.75006 1.90514C-0.450274 4.19064 5.95376e-05 6.61847 5.95376e-05 13.9941C5.95376e-05 20.1191 -1.06861 26.2593 4.52439 27.7048C6.27089 28.154 21.7456 28.154 23.4897 27.7025C25.8184 27.1016 27.7131 25.2128 27.9721 21.9193C28.0082 21.4596 28.0082 6.53681 27.9709 6.06781C27.6956 2.55964 25.5361 0.537806 22.6906 0.128306C22.0384 0.0338061 21.9077 0.00580608 18.5617 -2.72542e-05C6.69323 0.00580608 4.09156 -0.522694 1.75006 1.90514Z" fill="url(#paint0_linear)"/>
<path d="M13.9977 3.6622C9.76152 3.6622 5.73885 3.28537 4.20235 7.2287C3.56768 8.85737 3.65985 10.9725 3.65985 14.0012C3.65985 16.6589 3.57468 19.1567 4.20235 20.7725C5.73535 24.7182 9.79068 24.3402 13.9953 24.3402C18.0518 24.3402 22.2344 24.7625 23.7895 20.7725C24.4254 19.1275 24.332 17.0439 24.332 14.0012C24.332 9.9622 24.5548 7.3547 22.596 5.39703C20.6127 3.4137 17.9305 3.6622 13.993 3.6622H13.9977ZM13.0713 5.52537C21.9077 5.51137 23.0323 4.52903 22.4117 18.1755C22.1912 23.002 18.5162 22.4724 13.9988 22.4724C5.76218 22.4724 5.52535 22.2367 5.52535 13.9965C5.52535 5.6607 6.17868 5.53003 13.0713 5.52303V5.52537ZM19.516 7.24153C18.8312 7.24153 18.2758 7.79687 18.2758 8.4817C18.2758 9.16653 18.8312 9.72187 19.516 9.72187C20.2008 9.72187 20.7562 9.16653 20.7562 8.4817C20.7562 7.79687 20.2008 7.24153 19.516 7.24153ZM13.9977 8.6917C11.0658 8.6917 8.68935 11.0694 8.68935 14.0012C8.68935 16.933 11.0658 19.3095 13.9977 19.3095C16.9295 19.3095 19.3048 16.933 19.3048 14.0012C19.3048 11.0694 16.9295 8.6917 13.9977 8.6917ZM13.9977 10.5549C18.5535 10.5549 18.5593 17.4475 13.9977 17.4475C9.44302 17.4475 9.43602 10.5549 13.9977 10.5549Z" fill="white"/>
</g>
<defs>
<linearGradient id="paint0_linear" x1="1.80375" y1="26.2116" x2="27.8268" y2="3.68894" gradientUnits="userSpaceOnUse">
<stop stop-color="#FFDD55"/>
<stop offset="0.5" stop-color="#FF543E"/>
<stop offset="1" stop-color="#C837AB"/>
</linearGradient>
<clipPath id="clip0">
<rect width="28" height="28" fill="white"/>
</clipPath>
</defs>
</svg>
