<svg width="24" height="24" viewBox="0 0 24 24" fill="none" xmlns="http://www.w3.org/2000/svg">
<path fill-rule="evenodd" clip-rule="evenodd" d="M14 8C14 9.10457 13.1046 10 12 10C10.8954 10 10 9.10457 10 8C10 6.89543 10.8954 6 12 6C13.1046 6 14 6.89543 14 8ZM8 8C8 10.2091 9.79086 12 12 12C14.2091 12 16 10.2091 16 8C16 5.79086 14.2091 4 12 4C9.79086 4 8 5.79086 8 8ZM18 21C18.5523 21 19 20.5523 19 20C19 16.134 15.866 13 12 13C8.13401 13 5 16.134 5 20C5 20.5523 5.44772 21 6 21C6.55228 21 7 20.5523 7 20C7 17.2386 9.23858 15 12 15C14.7614 15 17 17.2386 17 20C17 20.5523 17.4477 21 18 21Z" fill="#414141"/>
</svg>
