<svg width="28" height="28" viewBox="0 0 28 28" fill="none" xmlns="http://www.w3.org/2000/svg">
<g clip-path="url(#clip0)">
<path d="M14.0009 27.9998C21.7328 27.9998 28.0008 21.7318 28.0008 13.9999C28.0008 6.26796 21.7328 0 14.0009 0C6.26896 0 0.00100708 6.26796 0.00100708 13.9999C0.00100708 21.7318 6.26896 27.9998 14.0009 27.9998Z" fill="#55ACEE"/>
<path d="M22.5755 10.0613C21.9756 10.3273 21.3302 10.5073 20.6534 10.5876C21.3444 10.1736 21.8747 9.51851 22.1251 8.73664C21.4784 9.12021 20.762 9.39847 20 9.54846C19.3896 8.89835 18.5199 8.49207 17.5568 8.49207C15.7091 8.49207 14.2105 9.99068 14.2105 11.8384C14.2105 12.1007 14.2402 12.356 14.2976 12.6011C11.5165 12.4616 9.05056 11.1294 7.39996 9.10424C7.11197 9.59837 6.94676 10.1736 6.94676 10.7868C6.94676 11.9475 7.53797 12.9722 8.43539 13.5721C7.8871 13.5549 7.37076 13.4044 6.91981 13.1531C6.91956 13.1673 6.91956 13.1816 6.91956 13.1955C6.91956 14.8169 8.07353 16.1693 9.60409 16.4765C9.32358 16.5534 9.02735 16.5941 8.72264 16.5941C8.50652 16.5941 8.29713 16.5733 8.09299 16.5344C8.51874 17.8636 9.75432 18.8311 11.219 18.8583C10.0735 19.756 8.6308 20.2908 7.06256 20.2908C6.79303 20.2908 6.526 20.2751 6.26471 20.2439C7.74486 21.1937 9.50426 21.7475 11.3939 21.7475C17.5491 21.7475 20.9152 16.6485 20.9152 12.226C20.9152 12.081 20.9119 11.9365 20.9055 11.7933C21.5598 11.3216 22.1271 10.7324 22.5755 10.0613Z" fill="#F1F2F2"/>
</g>
<defs>
<clipPath id="clip0">
<rect width="28" height="28" fill="white"/>
</clipPath>
</defs>
</svg>
