<svg width="20" height="16" viewBox="0 0 20 16" fill="none" xmlns="http://www.w3.org/2000/svg">
<path d="M19.8651 5.50313L17.0089 0.503125C16.8307 0.19375 16.4995 0 16.1401 0H3.85887C3.49949 0 3.16824 0.19375 2.99012 0.503125L0.133865 5.50313C-0.247385 6.17188 0.23074 7 0.99949 7H1.99949V14.9C1.99949 15.5062 2.44637 16 2.99949 16H10.9995C11.5526 16 11.9995 15.5062 11.9995 14.9V7H16V15.5C16 15.775 16.225 16 16.5 16C16.775 16 17.4995 16 17.4995 16C17.7745 16 17.9995 15.775 17.9995 15.5V7H18.9995C19.7682 7 20.2464 6.17188 19.8651 5.50313ZM10 14H4V12H10V14ZM10 10.0063H4V7H10V10.0063ZM2.5297 5L4.21409 2H15.8375L17.569 5H2.5297Z" fill="#414141"/>
</svg>
